<?xml version="1.0" encoding="UTF-8"?>
<svg version="1.1" viewBox="0 0 2048 878" width="1280" height="1280" xmlns="http://www.w3.org/2000/svg">
<path transform="translate(1680,59)" d="m0 0h13l27 1 32 3 29 5 25 6 27 9 23 10 21 12 17 12 13 11 13 12 7 8 12 15 11 17 14 27 9 23 8 28 6 31 2 14v8h-171l-1-1-5-25-8-24-8-16-10-14-8-8-13-9-14-7-16-5-14-3-9-1h-36l-17 3-18 6-15 8-13 10-13 13-12 17-10 18-8 20-7 23-6 31-3 25-1 13v108l3 32 4 24 6 25 7 20 10 21 7 11 10 13 11 11 14 10 15 8 24 8 16 3 9 1h40l18-2 22-5 16-6 12-6 11-8 4-2v-115h-124v-122h302v303l-9 10-11 10-20 15-20 12-23 12-24 10-28 10-33 9-36 7-30 4-29 2h-58l-31-3-28-5-23-6-21-7-23-10-21-11-21-14-13-10-15-13-17-17-9-11-11-14-12-18-10-18-8-16-10-24-9-28-7-30-5-30-3-30-1-18v-96l3-35 5-33 8-34 12-36 11-25 11-21 10-16 12-17 9-11 11-12 5-6 8-7 12-11 16-12 17-11 22-12 23-10 27-9 26-6 27-4z" fill="#008D36"/>
<path transform="translate(58,70)" d="m0 0h179l1 495 2 22 4 20 6 17 8 15 7 9 6 7 12 9 16 8 15 5 19 3h34l18-3 16-5 16-8 13-10 8-9 8-13 6-14 5-19 3-20 1-13 1-496h178v503l-2 23-5 29-7 25-8 21-8 17-12 20-13 17-9 10-7 8-12 11-13 10-18 12-20 11-26 11-29 9-29 6-29 4-16 1h-55l-25-2-36-6-20-5-27-9-18-8-21-11-18-12-14-11-12-11-14-14-11-14-12-18-10-18-9-21-8-26-5-23-3-23-1-13z" fill="#008D36"/>
<path transform="translate(691,70)" d="m0 0h197l6 21 18 66 20 73 102 374 3-9 13-47 20-73 18-66 20-73 11-40 23-84 14-51 21-77 4-14h199l-2 9-12 35-35 105-14 41-14 42-14 41-18 54-14 41-17 51-14 41-19 57-14 41-18 54-14 41-22 66-7 19h-195l-4-10-47-141-14-41-12-37-14-41-109-327-17-50-29-87z" fill="#008D36"/>
</svg>
